name rise42.5664peak47.7979fall81.9185.mot
datacolumns 19
datarows 32
range 3.13165400000000 3.18332900000000
endheader
time	ground_force1_vx	ground_force1_vy	ground_force1_vz	ground_force1_px	ground_force1_py	ground_force1_pz	ground_force2_vx	ground_force2_vy	ground_force2_vz	ground_force2_px	ground_force2_py	ground_force2_pz	ground_torque1_x	ground_torque1_y	ground_torque1_z	ground_torque2_x	ground_torque2_y	ground_torque2_z	
3.13165400000000	-35.20765900000000	812.50568099999998	50.65804000000000	0.07376300000000	0.00000000000000	0.08445500000000	-7.46946200000000	38.67692800000000	4.46546400000000	0.32126000000000	0.00000000000000	-0.07726800000000	0.00000000000000	13.23743800000000	0.00000000000000	0.00000000000000	1.79678900000000	0.00000000000000	
3.13333000000000	-35.86465800000000	811.12686799999994	50.65119800000000	0.07282800000000	0.00000000000000	0.08440800000000	-8.30457500000000	44.95091400000000	5.08244700000000	0.32254600000000	0.00000000000000	-0.07782600000000	0.00000000000000	13.16702400000000	0.00000000000000	0.00000000000000	2.08203100000000	0.00000000000000	
3.13499100000000	-36.54085200000000	809.61711400000002	50.61945400000000	0.07189400000000	0.00000000000000	0.08435900000000	-9.02907400000000	51.20350600000000	5.66450300000000	0.32376000000000	0.00000000000000	-0.07834100000000	0.00000000000000	13.09852300000000	0.00000000000000	0.00000000000000	2.36326800000000	0.00000000000000	
3.13665800000000	-37.23616500000000	807.97385399999996	50.56209000000000	0.07096100000000	0.00000000000000	0.08430700000000	-9.62294400000000	57.34615000000000	6.19965100000000	0.32490700000000	0.00000000000000	-0.07881900000000	0.00000000000000	13.03211700000000	0.00000000000000	0.00000000000000	2.63567600000000	0.00000000000000	
3.13832700000000	-37.95043800000000	806.19453199999998	50.47844000000000	0.07002900000000	0.00000000000000	0.08425200000000	-10.07356100000000	63.31438300000000	6.67936800000000	0.32598900000000	0.00000000000000	-0.07926700000000	0.00000000000000	12.96797300000000	0.00000000000000	0.00000000000000	2.89551500000000	0.00000000000000	
3.13998300000000	-38.68343200000000	804.27659700000004	50.36789200000000	0.06909900000000	0.00000000000000	0.08419500000000	-10.37567600000000	69.06949800000000	7.09871400000000	0.32701200000000	0.00000000000000	-0.07968700000000	0.00000000000000	12.90624700000000	0.00000000000000	0.00000000000000	3.14023200000000	0.00000000000000	
3.14165500000000	-39.43482000000000	802.21750499999996	50.22988700000000	0.06817000000000	0.00000000000000	0.08413500000000	-10.53079900000000	74.59781099999999	7.45614100000000	0.32797600000000	0.00000000000000	-0.08008400000000	0.00000000000000	12.84708300000000	0.00000000000000	0.00000000000000	3.36844300000000	0.00000000000000	
3.14333300000000	-40.20419300000000	800.01472000000001	50.06392700000000	0.06724300000000	0.00000000000000	0.08407300000000	-10.54613900000000	79.90799800000001	7.75305100000000	0.32888600000000	0.00000000000000	-0.08046200000000	0.00000000000000	12.79061100000000	0.00000000000000	0.00000000000000	3.57982000000000	0.00000000000000	
3.14498600000000	-40.99104900000000	797.66571599999997	49.86957400000000	0.06631700000000	0.00000000000000	0.08400800000000	-10.43325000000000	85.02705500000000	7.99319900000000	0.32974300000000	0.00000000000000	-0.08082200000000	0.00000000000000	12.73694500000000	0.00000000000000	0.00000000000000	3.77491600000000	0.00000000000000	
3.14665500000000	-41.79480200000000	795.16797699999995	49.64645600000000	0.06539200000000	0.00000000000000	0.08394100000000	-10.20656300000000	89.99545300000000	8.18199400000000	0.33055000000000	0.00000000000000	-0.08116700000000	0.00000000000000	12.68618500000000	0.00000000000000	0.00000000000000	3.95494300000000	0.00000000000000	
3.14833200000000	-42.61477200000000	792.51900200000000	49.39426200000000	0.06446900000000	0.00000000000000	0.08387100000000	-9.88193000000000	94.86202800000000	8.32579700000000	0.33130800000000	0.00000000000000	-0.08149800000000	0.00000000000000	12.63841500000000	0.00000000000000	0.00000000000000	4.12154100000000	0.00000000000000	
3.14999100000000	-43.45019100000000	789.71630800000003	49.11275200000000	0.06354700000000	0.00000000000000	0.08379900000000	-9.47530600000000	99.67907800000000	8.43126000000000	0.33202000000000	0.00000000000000	-0.08181800000000	0.00000000000000	12.59370100000000	0.00000000000000	0.00000000000000	4.27654100000000	0.00000000000000	
3.15165900000000	-44.30019600000000	786.75742900000000	48.80175300000000	0.06262700000000	0.00000000000000	0.08372400000000	-9.00164900000000	104.49800600000000	8.50475000000000	0.33268800000000	0.00000000000000	-0.08212900000000	0.00000000000000	12.55209400000000	0.00000000000000	0.00000000000000	4.42176800000000	0.00000000000000	
3.15332500000000	-45.16383600000000	783.63992599999995	48.46116200000000	0.06170800000000	0.00000000000000	0.08364700000000	-8.47408300000000	109.36577300000000	8.55190400000000	0.33331200000000	0.00000000000000	-0.08243000000000	0.00000000000000	12.51362500000000	0.00000000000000	0.00000000000000	4.55886500000000	0.00000000000000	
3.15498400000000	-46.04006500000000	780.36138700000004	48.09094700000000	0.06079100000000	0.00000000000000	0.08356700000000	-7.90334200000000	114.32228200000000	8.57730800000000	0.33389500000000	0.00000000000000	-0.08272300000000	0.00000000000000	12.47830800000000	0.00000000000000	0.00000000000000	4.68917400000000	0.00000000000000	
3.15665400000000	-46.92774800000000	776.91943700000002	47.69115100000000	0.05987500000000	0.00000000000000	0.08348500000000	-7.29750100000000	119.39873400000000	8.58431800000000	0.33443800000000	0.00000000000000	-0.08300900000000	0.00000000000000	12.44613800000000	0.00000000000000	0.00000000000000	4.81365100000000	0.00000000000000	
3.15833700000000	-47.82565700000000	773.31173699999999	47.26188700000000	0.05896100000000	0.00000000000000	0.08340100000000	-6.66194400000000	124.61690900000001	8.57500400000000	0.33494200000000	0.00000000000000	-0.08328900000000	0.00000000000000	12.41709300000000	0.00000000000000	0.00000000000000	4.93283100000000	0.00000000000000	
3.15999000000000	-48.73247400000000	769.53599699999995	46.80334200000000	0.05804800000000	0.00000000000000	0.08331500000000	-5.99954000000000	129.98924800000000	8.55019700000000	0.33540800000000	0.00000000000000	-0.08356300000000	0.00000000000000	12.39112800000000	0.00000000000000	0.00000000000000	5.04683300000000	0.00000000000000	
3.16165700000000	-49.64679300000000	765.58997999999997	46.31577700000000	0.05713700000000	0.00000000000000	0.08322700000000	-5.31098400000000	135.51959700000000	8.50962500000000	0.33583800000000	0.00000000000000	-0.08383300000000	0.00000000000000	12.36818300000000	0.00000000000000	0.00000000000000	5.15539200000000	0.00000000000000	
3.16333300000000	-50.56712100000000	761.47150999999997	45.79952800000000	0.05622600000000	0.00000000000000	0.08313700000000	-4.59521900000000	141.20442700000001	8.45210900000000	0.33623200000000	0.00000000000000	-0.08409800000000	0.00000000000000	12.34817600000000	0.00000000000000	0.00000000000000	5.25791800000000	0.00000000000000	
3.16499100000000	-51.49187900000000	757.17848500000002	45.25500000000000	0.05531800000000	0.00000000000000	0.08304400000000	-3.84993300000000	147.03434799999999	8.37578300000000	0.33659100000000	0.00000000000000	-0.08435800000000	0.00000000000000	12.33100700000000	0.00000000000000	0.00000000000000	5.35357000000000	0.00000000000000	
3.16665100000000	-52.41940600000000	752.70888100000002	44.68267500000000	0.05441000000000	0.00000000000000	0.08295000000000	-3.07204000000000	152.99576400000001	8.27833700000000	0.33691700000000	0.00000000000000	-0.08461600000000	0.00000000000000	12.31655800000000	0.00000000000000	0.00000000000000	5.44133400000000	0.00000000000000	
3.16834300000000	-53.34796100000000	748.06076900000005	44.08310400000000	0.05350400000000	0.00000000000000	0.08285400000000	-2.25814000000000	159.07250600000000	8.15724400000000	0.33720900000000	0.00000000000000	-0.08486900000000	0.00000000000000	12.30468900000000	0.00000000000000	0.00000000000000	5.52010200000000	0.00000000000000	
3.16999600000000	-54.27572600000000	743.23232299999995	43.45690800000000	0.05260000000000	0.00000000000000	0.08275600000000	-1.40492000000000	165.24733000000001	8.00996600000000	0.33746900000000	0.00000000000000	-0.08512000000000	0.00000000000000	12.29524600000000	0.00000000000000	0.00000000000000	5.58874800000000	0.00000000000000	
3.17165200000000	-55.20081000000000	738.22183600000005	42.80478000000000	0.05169600000000	0.00000000000000	0.08265700000000	-0.50946800000000	171.50320700000000	7.83412400000000	0.33769800000000	0.00000000000000	-0.08536800000000	0.00000000000000	12.28805200000000	0.00000000000000	0.00000000000000	5.64619200000000	0.00000000000000	
3.17332600000000	-56.12125500000000	733.02773300000001	42.12747600000000	0.05079400000000	0.00000000000000	0.08255600000000	0.43048600000000	177.82433000000000	7.62763200000000	0.33789500000000	0.00000000000000	-0.08561300000000	0.00000000000000	12.28291600000000	0.00000000000000	0.00000000000000	5.69144700000000	0.00000000000000	
3.17498400000000	-57.03503600000000	727.64858300000003	41.42582200000000	0.04989300000000	0.00000000000000	0.08245400000000	1.41643200000000	184.19684899999999	7.38878700000000	0.33806100000000	0.00000000000000	-0.08585500000000	0.00000000000000	12.27962900000000	0.00000000000000	0.00000000000000	5.72365800000000	0.00000000000000	
3.17665400000000	-57.94007000000000	722.08311800000001	40.70070300000000	0.04899300000000	0.00000000000000	0.08235000000000	2.44900900000000	190.60929800000000	7.11631500000000	0.33819700000000	0.00000000000000	-0.08609500000000	0.00000000000000	12.27796300000000	0.00000000000000	0.00000000000000	5.74212800000000	0.00000000000000	
3.17834000000000	-58.83421900000000	716.33024699999999	39.95306800000000	0.04809500000000	0.00000000000000	0.08224500000000	3.52801100000000	197.05277799999999	6.80939100000000	0.33830400000000	0.00000000000000	-0.08633300000000	0.00000000000000	12.27767700000000	0.00000000000000	0.00000000000000	5.74632100000000	0.00000000000000	
3.17998700000000	-59.71529400000000	710.38906899999995	39.18392400000000	0.04719700000000	0.00000000000000	0.08213900000000	4.65245000000000	203.52090600000000	6.46762100000000	0.33838100000000	0.00000000000000	-0.08656900000000	0.00000000000000	12.27851300000000	0.00000000000000	0.00000000000000	5.73587100000000	0.00000000000000	
3.18165000000000	-60.58106600000000	704.25889199999995	38.39433100000000	0.04630100000000	0.00000000000000	0.08203200000000	5.82065600000000	210.00960300000000	6.09100100000000	0.33842800000000	0.00000000000000	-0.08680200000000	0.00000000000000	12.28019900000000	0.00000000000000	0.00000000000000	5.71056500000000	0.00000000000000	
3.18332900000000	-61.42926400000000	697.93924300000003	37.58540400000000	0.04540500000000	0.00000000000000	0.08192300000000	7.03040500000000	216.51674399999999	5.67987200000000	0.33844700000000	0.00000000000000	-0.08703300000000	0.00000000000000	12.28244900000000	0.00000000000000	0.00000000000000	5.67033100000000	0.00000000000000	
